<svg width="24" height="24" viewBox="0 0 24 24" fill="none" xmlns="http://www.w3.org/2000/svg">
<path d="M4 2C4 3.10457 3.10457 4 2 4C0.89543 4 0 3.10457 0 2C0 0.89543 0.89543 0 2 0C3.10457 0 4 0.89543 4 2Z" fill="#D9D9D9"/>
<path d="M4 11.6C4 12.7046 3.10457 13.6 2 13.6C0.89543 13.6 0 12.7046 0 11.6C0 10.4954 0.89543 9.59999 2 9.59999C3.10457 9.59999 4 10.4954 4 11.6Z" fill="#D9D9D9"/>
<path d="M4 21.2C4 22.3046 3.10457 23.2 2 23.2C0.89543 23.2 0 22.3046 0 21.2C0 20.0954 0.89543 19.2 2 19.2C3.10457 19.2 4 20.0954 4 21.2Z" fill="#D9D9D9"/>
<path d="M14 2C14 3.10457 13.1046 4 12 4C10.8954 4 10 3.10457 10 2C10 0.89543 10.8954 0 12 0C13.1046 0 14 0.89543 14 2Z" fill="#D9D9D9"/>
<path d="M14 11.6C14 12.7046 13.1046 13.6 12 13.6C10.8954 13.6 10 12.7046 10 11.6C10 10.4954 10.8954 9.59999 12 9.59999C13.1046 9.59999 14 10.4954 14 11.6Z" fill="#D9D9D9"/>
<path d="M14 21.2C14 22.3046 13.1046 23.2 12 23.2C10.8954 23.2 10 22.3046 10 21.2C10 20.0954 10.8954 19.2 12 19.2C13.1046 19.2 14 20.0954 14 21.2Z" fill="#D9D9D9"/>
<path d="M24 2C24 3.10457 23.1046 4 22 4C20.8954 4 20 3.10457 20 2C20 0.89543 20.8954 0 22 0C23.1046 0 24 0.89543 24 2Z" fill="#D9D9D9"/>
<path d="M24 11.6C24 12.7046 23.1046 13.6 22 13.6C20.8954 13.6 20 12.7046 20 11.6C20 10.4954 20.8954 9.59999 22 9.59999C23.1046 9.59999 24 10.4954 24 11.6Z" fill="#D9D9D9"/>
<path d="M24 21.2C24 22.3046 23.1046 23.2 22 23.2C20.8954 23.2 20 22.3046 20 21.2C20 20.0954 20.8954 19.2 22 19.2C23.1046 19.2 24 20.0954 24 21.2Z" fill="#D9D9D9"/>
</svg>
