<svg width="519" height="386" viewBox="0 0 519 386" fill="none" xmlns="http://www.w3.org/2000/svg">
<g clip-path="url(#clip0_28_10)">
<circle cx="256.94" cy="224.94" r="208.94" fill="url(#paint0_linear_28_10)"/>
<circle cx="249.931" cy="214.931" r="142.931" fill="url(#paint1_linear_28_10)"/>
<path d="M444 547.162V638.029C443.999 641.468 443.526 644.765 442.686 647.197C441.845 649.629 440.706 650.996 439.518 651H83.4825C82.2944 650.993 81.1558 649.624 80.3157 647.193C79.4757 644.762 79.0026 641.467 79 638.029V522.925C79.4226 521.628 79.8453 520.35 80.2807 519.071C103.931 448.134 132.404 392.149 163.906 354.647C195.407 317.146 229.253 298.942 263.307 301.185C297.362 303.427 330.886 326.067 361.765 367.676C392.645 409.285 420.209 468.96 442.719 542.937C443.155 544.327 443.577 545.753 444 547.162Z" fill="#686868"/>
<path d="M226.314 371.579L213.601 371.931C211.67 372.03 209.759 371.494 208.161 370.403C206.78 369.375 206.147 367.984 206.425 366.588L208.927 353.994C209.398 351.619 212.305 349.823 215.837 349.725L222.858 349.531C226.39 349.433 229.391 351.066 229.993 353.412L233.185 365.848C233.539 367.227 232.983 368.65 231.662 369.753C230.126 370.931 228.248 371.572 226.314 371.579Z" fill="#3F3D56"/>
<path d="M303.644 371.219L290.931 371.571C288.999 371.671 287.089 371.134 285.491 370.044C284.11 369.015 283.477 367.624 283.754 366.228L286.256 353.634C286.728 351.259 289.634 349.463 293.167 349.365L300.188 349.171C303.72 349.073 306.721 350.706 307.323 353.052L310.515 365.488C310.869 366.867 310.313 368.29 308.991 369.394C307.456 370.571 305.578 371.212 303.644 371.219Z" fill="#3F3D56"/>
<path d="M182.168 264.307C181.588 264.056 181.11 263.615 180.814 263.055C180.518 262.495 180.421 261.851 180.54 261.228C180.66 260.606 180.987 260.044 181.469 259.633C181.951 259.223 182.559 258.99 183.191 258.973L327.726 254.975C328.09 254.965 328.453 255.027 328.794 255.157C329.134 255.287 329.446 255.484 329.711 255.734C329.975 255.985 330.188 256.286 330.337 256.619C330.486 256.953 330.568 257.312 330.578 257.677C330.597 258.414 330.324 259.129 329.818 259.664C329.312 260.2 328.615 260.512 327.88 260.534L183.344 264.531C182.941 264.543 182.539 264.467 182.168 264.307Z" fill="#3F3D56"/>
<path d="M235.51 216.38L194.195 217.523L198.046 357.242L239.361 356.099L235.51 216.38Z" fill="#E6E6E6"/>
<path d="M236.558 213.87L228.616 235.54L228.623 334.269L238.3 337.048L236.558 213.87Z" fill="#CCCCCC"/>
<path d="M214.636 179.866C206.907 180.086 201.01 193.485 201.152 198.713L201.413 208.179L229.4 207.404L229.139 197.939C228.993 192.711 222.366 179.658 214.636 179.866Z" fill="#3F3D56"/>
<path d="M194.731 275.384C193.286 275.422 191.886 274.885 190.837 273.891C189.787 272.896 189.175 271.525 189.133 270.079L188.709 254.675C188.669 253.228 189.204 251.824 190.198 250.773C191.191 249.721 192.56 249.108 194.005 249.068C195.45 249.028 196.851 249.565 197.901 250.56C198.95 251.554 199.562 252.926 199.602 254.373L200.027 269.778C200.065 271.224 199.529 272.627 198.536 273.678C197.543 274.729 196.175 275.343 194.731 275.384Z" fill="#3F3D56"/>
<path d="M205.215 217.854L205.019 207.674L207.685 207.607L207.88 217.755L210.296 365.66L207.63 365.734" fill="#3F3D56"/>
<path d="M240.247 241.661L192.336 242.986C187.76 237.397 187.344 213.583 196.894 209.051L200.64 202.681L229.514 201.269L232.888 207.976C237.639 212.025 240.089 235.69 240.247 241.661Z" fill="#E6E6E6"/>
<path d="M222.214 230.24L210.098 230.575C207.76 230.64 205.772 227.601 205.668 223.803C205.563 220.005 207.38 216.861 209.718 216.797L221.834 216.462C224.172 216.397 226.16 219.435 226.265 223.233C226.369 227.032 224.552 230.175 222.214 230.24Z" fill="#A90C0C"/>
<path d="M198.752 298.941L173.777 316.612L169.414 356.454L198.549 346.704L198.752 298.941Z" fill="#E6E6E6"/>
<path d="M315.262 214.669L273.947 215.812L277.799 355.531L319.114 354.388L315.262 214.669Z" fill="#E6E6E6"/>
<path d="M274.937 214.337L283.438 235.793L285.989 334.489L276.386 337.519L274.937 214.337Z" fill="#CCCCCC"/>
<path d="M335.923 175.878C338.914 175.878 341.339 172.622 341.339 168.605C341.339 164.588 338.914 161.331 335.923 161.331C332.933 161.331 330.508 164.588 330.508 168.605C330.508 172.622 332.933 175.878 335.923 175.878Z" fill="#E6E6E6"/>
<path d="M364.232 282.659C367.222 282.659 369.647 279.403 369.647 275.386C369.647 271.369 367.222 268.113 364.232 268.113C361.241 268.113 358.816 271.369 358.816 275.386C358.816 279.403 361.241 282.659 364.232 282.659Z" fill="#E6E6E6"/>
<path d="M153.512 262.247C156.503 262.247 158.927 258.991 158.927 254.974C158.927 250.957 156.503 247.701 153.512 247.701C150.521 247.701 148.097 250.957 148.097 254.974C148.097 258.991 150.521 262.247 153.512 262.247Z" fill="#E6E6E6"/>
<path d="M293.583 178.177C285.854 178.397 279.956 191.796 280.098 197.024L280.359 206.49L308.347 205.716L308.086 196.25C307.939 191.022 301.313 177.97 293.583 178.177Z" fill="#3F3D56"/>
<path d="M301.586 221.041L301.39 210.86L304.056 210.794L304.251 220.942L306.667 368.847L304.001 368.921" fill="#3F3D56"/>
<path d="M319.193 239.972L271.282 241.298C270.447 236.24 271.528 212.639 275.841 207.362L279.586 200.992L308.46 199.58L311.835 206.287C320.36 206.983 323.342 230.175 319.193 239.972Z" fill="#E6E6E6"/>
<path d="M301.219 230.677L289.103 231.012C286.765 231.077 284.764 227.561 284.643 223.177C284.523 218.793 286.327 215.173 288.665 215.108L300.781 214.773C303.119 214.708 305.119 218.223 305.24 222.608C305.361 226.992 303.557 230.612 301.219 230.677Z" fill="#A90C0C"/>
<path d="M317.304 288.728L341.447 307.521L343.99 347.522L315.331 336.449L317.304 288.728Z" fill="#E6E6E6"/>
<path d="M310.561 103.456C284.655 103.456 254.882 74.6598 228.54 88.3414C148.784 129.766 159.763 60.4487 136.85 34.6691L137.602 33.1578C154.948 99.4342 170.644 205.043 228.886 86.5835C243.476 56.9096 291.359 102.777 319.545 101.424L319.594 103.241C316.617 103.385 313.606 103.456 310.561 103.456Z" fill="#C6C6C6"/>
<path d="M372.741 107.53C352.089 123.197 310.998 118.248 298.246 145.085C259.637 226.339 226.607 164.443 192.802 157.749L192.49 156.09C226.331 158.901 262.63 154.539 297.462 143.474C328.941 133.476 357.025 118.602 378.678 100.478L379.812 101.896C377.526 103.811 375.169 105.689 372.741 107.53Z" fill="#C6C6C6"/>
<path d="M148.097 103.963C151.088 103.963 153.512 100.707 153.512 96.6897C153.512 92.6727 151.088 89.4163 148.097 89.4163C145.106 89.4163 142.682 92.6727 142.682 96.6897C142.682 100.707 145.106 103.963 148.097 103.963Z" fill="#E6E6E6"/>
<path d="M316.051 44.8899C319.042 44.8899 321.466 41.6335 321.466 37.6165C321.466 33.5996 319.042 30.3432 316.051 30.3432C313.06 30.3432 310.636 33.5996 310.636 37.6165C310.636 41.6335 313.06 44.8899 316.051 44.8899Z" fill="white"/>
<path d="M142.682 197.339C145.673 197.339 148.097 194.083 148.097 190.066C148.097 186.049 145.673 182.793 142.682 182.793C139.691 182.793 137.267 186.049 137.267 190.066C137.267 194.083 139.691 197.339 142.682 197.339Z" fill="#E6E6E6"/>
<path d="M197.675 133.319C195.199 134.971 192.665 131.038 195.188 129.459C197.664 127.807 200.198 131.74 197.675 133.319Z" fill="#E6E6E6"/>
<path d="M289.344 4.25659C286.868 5.90884 284.334 1.97634 286.858 0.397466C289.333 -1.2547 291.867 2.67781 289.344 4.25659Z" fill="#E6E6E6"/>
<path d="M343.37 80.7768L341.795 80.4307L342.14 78.8524L341.09 78.6219L340.745 80.2002L339.17 79.8547L338.939 80.9065L340.514 81.2526L340.17 82.8302L341.22 83.0607L341.565 81.4824L343.14 81.8285L343.37 80.7768Z" fill="#E6E6E6"/>
<path d="M198.998 27.8925C202.787 27.8925 205.859 24.8158 205.859 21.0205C205.859 17.2252 202.787 14.1485 198.998 14.1485C195.209 14.1485 192.137 17.2252 192.137 21.0205C192.137 24.8158 195.209 27.8925 198.998 27.8925Z" fill="white"/>
<path d="M249.179 12.3222C241.45 12.5421 235.553 25.9406 235.695 31.169L235.956 40.6346L263.943 39.8605L263.682 30.3949C263.536 25.1666 256.909 12.1145 249.179 12.3222Z" fill="#3F3D56"/>
<path d="M265.845 370.754L253.131 371.106C251.2 371.205 249.29 370.669 247.692 369.578C246.311 368.55 245.678 367.159 245.955 365.763L248.457 353.169C248.929 350.794 251.835 348.998 255.368 348.9L262.389 348.706C265.921 348.608 268.922 350.241 269.524 352.587L272.715 365.023C273.07 366.402 272.514 367.825 271.192 368.928C269.656 370.106 267.778 370.747 265.845 370.754Z" fill="#3F3D56"/>
<path d="M271.514 72.5804L230.199 73.7231L237.985 356.149L279.3 355.007L271.514 72.5804Z" fill="#E6E6E6"/>
<path d="M254.982 209.292L254.787 199.111L257.452 199.045L257.648 209.193L260.064 357.098L257.398 357.172" fill="#3F3D56"/>
<path d="M279.648 98.4285L223.668 99.9769C222.692 94.0673 223.955 66.4914 228.994 60.3258L230.375 52.966L269.028 51.8969L271.051 59.0699C276.601 63.8008 279.463 91.4516 279.648 98.4285Z" fill="#E6E6E6"/>
<path d="M270.25 52.7653L230.362 53.8686C228.89 53.9093 227.675 53.135 227.647 52.1392C227.643 51.9957 227.664 51.8527 227.709 51.7163L233.905 32.5977C234.17 31.779 235.226 31.1778 236.459 31.1437L262.911 30.4121C264.144 30.378 265.231 30.92 265.541 31.7227L272.781 50.4698C273.151 51.4286 272.296 52.4264 270.871 52.6984C270.666 52.7373 270.458 52.7597 270.25 52.7653Z" fill="#E6E6E6"/>
<path d="M234.297 207.993C233.937 207.839 233.597 207.641 233.284 207.406C232.835 207.09 232.464 206.676 232.2 206.195C231.936 205.714 231.785 205.179 231.759 204.631L230.309 152.057C230.25 149.881 232.377 148.05 235.052 147.976L270.76 146.988C273.435 146.914 275.659 148.625 275.72 150.801L277.169 203.375C277.173 203.924 277.052 204.467 276.815 204.961C276.577 205.456 276.23 205.89 275.799 206.23C274.845 207.008 273.657 207.44 272.426 207.456L236.719 208.443C235.888 208.471 235.062 208.318 234.297 207.993Z" fill="#3F3D56"/>
<path d="M257.152 49.3818L245.036 49.717C242.698 49.7816 240.721 47.1358 240.63 43.8198C240.538 40.5038 242.367 37.7527 244.705 37.688L256.82 37.3529C259.158 37.2882 261.135 39.9341 261.227 43.2501C261.318 46.5661 259.49 49.3172 257.152 49.3818Z" fill="#A90C0C"/>
<path d="M316.286 271.972C314.842 272.01 313.441 271.473 312.392 270.478C311.343 269.484 310.73 268.113 310.688 266.666L310.264 251.262C310.225 249.816 310.761 248.413 311.754 247.362C312.747 246.312 314.116 245.699 315.56 245.659C317.004 245.619 318.405 246.155 319.454 247.149C320.504 248.143 321.116 249.514 321.157 250.961L321.582 266.365C321.62 267.812 321.084 269.214 320.091 270.265C319.098 271.316 317.73 271.93 316.286 271.972Z" fill="#3F3D56"/>
<path d="M117.28 315.653C110.711 315.653 106.441 314.018 104.551 310.768C100.824 304.36 107.066 293.115 123.104 277.346L124.451 278.721C109.554 293.369 103.077 304.406 106.213 309.799C108.197 313.21 114.103 314.433 123.296 313.333C132.421 312.242 144.515 308.989 159.24 303.666C189.556 292.707 227.59 274.222 266.337 251.615C305.082 229.008 339.897 204.988 364.37 183.979C369.07 179.943 373.336 176.061 377.049 172.44C381.923 167.803 386.419 162.783 390.495 157.429C395.985 149.964 397.837 144.214 395.853 140.802C392.539 135.104 378.617 135.64 356.649 142.313L356.092 140.47C379.66 133.311 393.597 133.096 397.515 139.833C399.949 144.019 398.109 150.323 392.044 158.572C387.906 164.011 383.34 169.11 378.391 173.82C374.649 177.469 370.353 181.379 365.621 185.442C341.063 206.524 306.147 230.616 267.304 253.279C228.461 275.943 190.315 294.481 159.893 305.478C145.031 310.851 132.794 314.137 123.524 315.245C121.452 315.504 119.367 315.64 117.28 315.653Z" fill="#3F3D56"/>
<path d="M271.334 89.4162L295.477 108.209L298.02 148.21L269.361 137.138L271.334 89.4162Z" fill="#E6E6E6"/>
<path d="M234.861 89.4162L210.718 108.209L208.176 148.21L236.834 137.138L234.861 89.4162Z" fill="#E6E6E6"/>
<path d="M248.485 60.245L248.29 50.0645L250.955 49.9984L251.151 60.1468L253.567 79.6319L250.901 79.7058" fill="#3F3D56"/>
<path d="M126.859 140.999C129.354 140.032 130.831 137.839 130.16 136.1C129.488 134.362 126.921 133.736 124.426 134.704C121.931 135.671 120.453 137.865 121.125 139.603C121.796 141.342 124.364 141.967 126.859 140.999Z" fill="#E6E6E6"/>
<path d="M158.272 136.963C160.767 135.996 162.245 133.802 161.573 132.064C160.901 130.325 158.334 129.7 155.839 130.668C153.344 131.635 151.866 133.828 152.538 135.567C153.21 137.305 155.777 137.93 158.272 136.963Z" fill="#E6E6E6"/>
<path d="M124.134 167.844C126.629 166.877 128.107 164.684 127.435 162.945C126.763 161.207 124.196 160.581 121.701 161.549C119.206 162.516 117.728 164.71 118.4 166.448C119.072 168.187 121.639 168.812 124.134 167.844Z" fill="#E6E6E6"/>
<path d="M115.047 179.686C116.191 179.415 116.803 177.859 116.414 176.211C116.024 174.562 114.781 173.446 113.636 173.718C112.492 173.989 111.879 175.545 112.269 177.193C112.658 178.841 113.902 179.957 115.047 179.686Z" fill="#E6E6E6"/>
<path d="M114.86 199.734C116.004 199.463 116.616 197.907 116.227 196.258C115.837 194.61 114.594 193.494 113.449 193.766C112.305 194.037 111.692 195.593 112.082 197.241C112.471 198.889 113.715 200.005 114.86 199.734Z" fill="#E6E6E6"/>
<path d="M142.43 158.21C143.575 157.938 144.187 156.382 143.798 154.734C143.408 153.086 142.165 151.97 141.02 152.242C139.875 152.513 139.263 154.069 139.653 155.717C140.042 157.365 141.286 158.481 142.43 158.21Z" fill="#E6E6E6"/>
<path d="M125.886 154.186C127.03 153.914 127.642 152.358 127.253 150.71C126.864 149.062 125.62 147.946 124.475 148.217C123.331 148.489 122.719 150.045 123.108 151.693C123.497 153.341 124.741 154.457 125.886 154.186Z" fill="#E6E6E6"/>
<path d="M143.422 135.725C144.566 135.453 145.179 133.897 144.789 132.249C144.4 130.601 143.156 129.485 142.011 129.757C140.867 130.028 140.255 131.584 140.644 133.232C141.034 134.88 142.277 135.996 143.422 135.725Z" fill="#E6E6E6"/>
<path d="M401.526 231.569C404.111 230.879 405.819 228.86 405.34 227.059C404.861 225.257 402.377 224.356 399.791 225.046C397.206 225.735 395.499 227.755 395.978 229.556C396.457 231.357 398.941 232.259 401.526 231.569Z" fill="#E6E6E6"/>
<path d="M369.86 232.157C372.446 231.467 374.153 229.448 373.674 227.646C373.195 225.845 370.711 224.944 368.126 225.633C365.541 226.323 363.833 228.342 364.312 230.144C364.791 231.945 367.275 232.846 369.86 232.157Z" fill="#E6E6E6"/>
<path d="M407.151 205.181C409.736 204.491 411.444 202.472 410.965 200.67C410.486 198.869 408.002 197.968 405.417 198.657C402.831 199.347 401.124 201.366 401.603 203.168C402.082 204.969 404.566 205.87 407.151 205.181Z" fill="#E6E6E6"/>
<path d="M416.491 193.963C417.658 193.818 418.436 192.338 418.227 190.658C418.019 188.977 416.905 187.732 415.737 187.877C414.57 188.022 413.792 189.502 414 191.183C414.208 192.863 415.323 194.108 416.491 193.963Z" fill="#E6E6E6"/>
<path d="M418.855 174.055C420.022 173.91 420.8 172.43 420.592 170.749C420.384 169.068 419.269 167.823 418.101 167.968C416.934 168.113 416.157 169.593 416.365 171.274C416.573 172.955 417.688 174.2 418.855 174.055Z" fill="#E6E6E6"/>
<path d="M386.936 212.326C388.103 212.181 388.881 210.701 388.673 209.021C388.465 207.34 387.35 206.095 386.182 206.24C385.015 206.385 384.237 207.865 384.446 209.546C384.654 211.226 385.769 212.471 386.936 212.326Z" fill="#E6E6E6"/>
<path d="M402.945 218.13C404.112 217.985 404.89 216.505 404.682 214.825C404.474 213.144 403.359 211.899 402.191 212.044C401.024 212.189 400.247 213.669 400.455 215.35C400.663 217.03 401.778 218.275 402.945 218.13Z" fill="#E6E6E6"/>
<path d="M383.507 234.57C384.674 234.425 385.452 232.945 385.244 231.264C385.036 229.583 383.921 228.338 382.753 228.483C381.586 228.628 380.809 230.108 381.017 231.789C381.225 233.47 382.34 234.715 383.507 234.57Z" fill="#E6E6E6"/>
<path d="M460.688 335.97C452.411 335.97 443.339 335.657 433.472 335.03C382.436 331.784 316.328 320.498 247.327 303.252C178.327 286.005 114.676 264.858 68.1002 243.707C45.412 233.403 27.9989 223.65 16.3452 214.718C4.00691 205.261 -1.39002 197.019 0.303677 190.22C3.60378 176.974 32.8246 174.076 56.7568 173.978L56.7649 175.904C23.8997 176.039 4.51089 181.289 2.16988 190.686C-0.812174 202.655 23.5081 221.341 68.8944 241.952C115.367 263.057 178.901 284.163 247.793 301.383C316.685 318.602 382.67 329.869 433.594 333.108C483.325 336.272 513.56 331.222 516.542 319.253C519.017 309.315 502.696 294.676 470.585 278.031L471.469 276.32C494.801 288.415 521.885 305.762 518.408 319.719C516.714 326.518 508.083 331.254 492.756 333.796C484.019 335.244 473.288 335.97 460.688 335.97Z" fill="#A8A8A8"/>
</g>
<defs>
<linearGradient id="paint0_linear_28_10" x1="20.973" y1="-211.131" x2="223.676" y2="277.954" gradientUnits="userSpaceOnUse">
<stop stop-color="#D9D9D9"/>
<stop offset="1" stop-color="#D9D9D9" stop-opacity="0"/>
</linearGradient>
<linearGradient id="paint1_linear_28_10" x1="88.5114" y1="-83.3757" x2="335.69" y2="357.863" gradientUnits="userSpaceOnUse">
<stop stop-color="#D9D9D9"/>
<stop offset="1" stop-color="#D9D9D9" stop-opacity="0"/>
</linearGradient>
<clipPath id="clip0_28_10">
<rect width="518.711" height="422.037" fill="white"/>
</clipPath>
</defs>
</svg>
