<svg width="145" height="34" viewBox="0 0 145 34" fill="none" xmlns="http://www.w3.org/2000/svg">
<path d="M16 0.5C7.16514 0.5 0 7.66514 0 16.5C0 20.0771 1.1756 23.3801 3.1596 26.0446L4.28795 25.1674H6.23884L4.1529 27.2522C4.53747 27.6757 4.94645 28.0759 5.37388 28.4565L8.25893 25.5703V27.5212L6.65513 29.4821C9.28485 31.3793 12.5109 32.5 16 32.5C24.8349 32.5 32 25.3349 32 16.5C32 7.66514 24.8349 0.5 16 0.5ZM21.4074 7.62946C21.5779 7.62928 21.7493 7.63502 21.9208 7.64509L24.4219 7.79241L24.5692 10.2935C24.7298 13.037 23.5666 15.6919 21.4397 17.4319L19.2801 19.0201C20.6453 22.8664 18.3616 25.1663 18.3616 25.1663C17.8347 22.8823 17.1541 21.6685 16.5536 21.0257L15.5089 21.7935C15.0546 22.1084 14.44 22.0538 14.0491 21.6629L13.8638 21.4777C13.6387 21.7697 13.3877 22.0587 13.1083 22.3382C11.3231 24.1233 9.15262 24.8474 8.26004 23.9542C7.36747 23.0617 8.09097 20.8912 9.87612 19.106C10.1555 18.8266 10.4446 18.5762 10.7366 18.3504L10.5513 18.1641C10.1605 17.7732 10.1059 17.1591 10.4208 16.7054L11.1886 15.6596C10.5452 15.0596 9.33199 14.3801 7.04799 13.8527C7.04799 13.8527 9.34791 11.5684 13.1942 12.9342L14.7835 10.7734C16.4147 8.77951 18.8493 7.63229 21.4074 7.62946ZM19.5737 10.3549C18.9675 10.3549 18.3861 10.5957 17.9574 11.0244C17.5288 11.453 17.2879 12.0344 17.2879 12.6406C17.2879 13.2468 17.5288 13.8282 17.9574 14.2569C18.3861 14.6855 18.9675 14.9263 19.5737 14.9263C20.1799 14.9263 20.7612 14.6855 21.1899 14.2569C21.6186 13.8282 21.8594 13.2468 21.8594 12.6406C21.8594 12.0344 21.6186 11.453 21.1899 11.0244C20.7612 10.5957 20.1799 10.3549 19.5737 10.3549ZM11.1908 18.8047C10.8771 18.9864 10.5676 19.222 10.2801 19.51C9.16413 20.626 8.80238 22.0736 9.4721 22.7433C10.1418 23.413 11.5882 23.0507 12.7042 21.9353C12.9922 21.6473 13.2279 21.3371 13.4107 21.0246L11.1908 18.8047Z" fill="#257EBE"/>
<path d="M52.384 24.692C51.888 24.692 51.504 24.556 51.232 24.284C50.976 23.996 50.848 23.604 50.848 23.108V9.14C50.848 8.628 50.984 8.244 51.256 7.988C51.528 7.716 51.912 7.58 52.408 7.58H58.192C60.048 7.58 61.48 8.028 62.488 8.924C63.496 9.804 64 11.044 64 12.644C64 13.684 63.768 14.58 63.304 15.332C62.856 16.084 62.2 16.66 61.336 17.06C60.472 17.46 59.424 17.66 58.192 17.66L58.408 17.3H59.2C59.856 17.3 60.424 17.46 60.904 17.78C61.4 18.1 61.832 18.604 62.2 19.292L64 22.628C64.192 22.964 64.28 23.292 64.264 23.612C64.248 23.932 64.128 24.196 63.904 24.404C63.68 24.596 63.352 24.692 62.92 24.692C62.488 24.692 62.136 24.604 61.864 24.428C61.592 24.236 61.352 23.948 61.144 23.564L58.72 19.1C58.432 18.556 58.088 18.196 57.688 18.02C57.304 17.828 56.808 17.732 56.2 17.732H53.92V23.108C53.92 23.604 53.792 23.996 53.536 24.284C53.28 24.556 52.896 24.692 52.384 24.692ZM53.92 15.452H57.664C58.768 15.452 59.6 15.228 60.16 14.78C60.736 14.316 61.024 13.628 61.024 12.716C61.024 11.82 60.736 11.148 60.16 10.7C59.6 10.236 58.768 10.004 57.664 10.004H53.92V15.452ZM72.0124 24.74C70.6844 24.74 69.5404 24.492 68.5804 23.996C67.6204 23.5 66.8764 22.796 66.3484 21.884C65.8364 20.972 65.5804 19.892 65.5804 18.644C65.5804 17.428 65.8284 16.364 66.3244 15.452C66.8364 14.54 67.5324 13.828 68.4124 13.316C69.3084 12.788 70.3244 12.524 71.4604 12.524C72.2924 12.524 73.0364 12.66 73.6924 12.932C74.3644 13.204 74.9324 13.596 75.3964 14.108C75.8764 14.62 76.2364 15.244 76.4764 15.98C76.7324 16.7 76.8604 17.516 76.8604 18.428C76.8604 18.716 76.7564 18.94 76.5484 19.1C76.3564 19.244 76.0764 19.316 75.7084 19.316H68.0044V17.588H74.7484L74.3644 17.948C74.3644 17.212 74.2524 16.596 74.0284 16.1C73.8204 15.604 73.5084 15.228 73.0924 14.972C72.6924 14.7 72.1884 14.564 71.5804 14.564C70.9084 14.564 70.3324 14.724 69.8524 15.044C69.3884 15.348 69.0284 15.788 68.7724 16.364C68.5324 16.924 68.4124 17.596 68.4124 18.38V18.548C68.4124 19.86 68.7164 20.844 69.3244 21.5C69.9484 22.14 70.8604 22.46 72.0604 22.46C72.4764 22.46 72.9404 22.412 73.4524 22.316C73.9804 22.204 74.4764 22.02 74.9404 21.764C75.2764 21.572 75.5724 21.492 75.8284 21.524C76.0844 21.54 76.2844 21.628 76.4284 21.788C76.5884 21.948 76.6844 22.148 76.7164 22.388C76.7484 22.612 76.7004 22.844 76.5724 23.084C76.4604 23.324 76.2604 23.532 75.9724 23.708C75.4124 24.06 74.7644 24.324 74.0284 24.5C73.3084 24.66 72.6364 24.74 72.0124 24.74ZM85.5243 24.74C84.5323 24.74 83.6603 24.492 82.9083 23.996C82.1723 23.5 81.6843 22.836 81.4443 22.004L81.7083 21.404V23.156C81.7083 23.652 81.5803 24.036 81.3243 24.308C81.0683 24.564 80.7083 24.692 80.2443 24.692C79.7643 24.692 79.3963 24.564 79.1403 24.308C78.8843 24.036 78.7563 23.652 78.7563 23.156V8.9C78.7563 8.404 78.8843 8.028 79.1403 7.772C79.3963 7.516 79.7643 7.388 80.2443 7.388C80.7243 7.388 81.0923 7.516 81.3483 7.772C81.6203 8.028 81.7563 8.404 81.7563 8.9V15.14H81.4683C81.7243 14.356 82.2203 13.724 82.9563 13.244C83.6923 12.764 84.5483 12.524 85.5243 12.524C86.5643 12.524 87.4683 12.772 88.2363 13.268C89.0043 13.764 89.6043 14.468 90.0363 15.38C90.4683 16.276 90.6843 17.356 90.6843 18.62C90.6843 19.868 90.4683 20.956 90.0363 21.884C89.6043 22.796 88.9963 23.5 88.2123 23.996C87.4443 24.492 86.5483 24.74 85.5243 24.74ZM84.6843 22.46C85.2763 22.46 85.7963 22.316 86.2443 22.028C86.6923 21.74 87.0363 21.316 87.2763 20.756C87.5323 20.18 87.6603 19.468 87.6603 18.62C87.6603 17.34 87.3883 16.388 86.8443 15.764C86.3003 15.124 85.5803 14.804 84.6843 14.804C84.0923 14.804 83.5723 14.948 83.1243 15.236C82.6763 15.508 82.3243 15.932 82.0683 16.508C81.8283 17.068 81.7083 17.772 81.7083 18.62C81.7083 19.884 81.9803 20.844 82.5243 21.5C83.0683 22.14 83.7883 22.46 84.6843 22.46ZM96.9149 24.74C95.9389 24.74 95.1309 24.564 94.4909 24.212C93.8509 23.844 93.3709 23.3 93.0509 22.58C92.7469 21.86 92.5949 20.964 92.5949 19.892V14.084C92.5949 13.572 92.7229 13.196 92.9789 12.956C93.2349 12.7 93.6029 12.572 94.0829 12.572C94.5629 12.572 94.9309 12.7 95.1869 12.956C95.4589 13.196 95.5949 13.572 95.5949 14.084V19.94C95.5949 20.772 95.7629 21.388 96.0989 21.788C96.4349 22.188 96.9709 22.388 97.7069 22.388C98.5069 22.388 99.1629 22.116 99.6749 21.572C100.187 21.012 100.443 20.276 100.443 19.364V14.084C100.443 13.572 100.571 13.196 100.827 12.956C101.083 12.7 101.451 12.572 101.931 12.572C102.411 12.572 102.779 12.7 103.035 12.956C103.307 13.196 103.443 13.572 103.443 14.084V23.156C103.443 24.18 102.955 24.692 101.979 24.692C101.515 24.692 101.155 24.564 100.899 24.308C100.643 24.036 100.515 23.652 100.515 23.156V21.332L100.851 22.052C100.515 22.916 100.003 23.58 99.3149 24.044C98.6429 24.508 97.8429 24.74 96.9149 24.74ZM110.597 24.74C109.573 24.74 108.669 24.492 107.885 23.996C107.117 23.5 106.517 22.796 106.085 21.884C105.653 20.956 105.437 19.868 105.437 18.62C105.437 17.356 105.653 16.276 106.085 15.38C106.517 14.468 107.117 13.764 107.885 13.268C108.669 12.772 109.573 12.524 110.597 12.524C111.573 12.524 112.421 12.764 113.141 13.244C113.877 13.724 114.373 14.356 114.629 15.14H114.365V8.9C114.365 8.404 114.493 8.028 114.749 7.772C115.005 7.516 115.373 7.388 115.853 7.388C116.333 7.388 116.701 7.516 116.957 7.772C117.229 8.028 117.365 8.404 117.365 8.9V23.156C117.365 23.652 117.237 24.036 116.981 24.308C116.725 24.564 116.357 24.692 115.877 24.692C115.397 24.692 115.029 24.564 114.773 24.308C114.517 24.036 114.389 23.652 114.389 23.156V21.284L114.653 22.004C114.413 22.836 113.925 23.5 113.189 23.996C112.453 24.492 111.589 24.74 110.597 24.74ZM111.437 22.46C112.029 22.46 112.549 22.316 112.997 22.028C113.445 21.74 113.789 21.316 114.029 20.756C114.285 20.18 114.413 19.468 114.413 18.62C114.413 17.34 114.141 16.388 113.597 15.764C113.053 15.124 112.333 14.804 111.437 14.804C110.845 14.804 110.325 14.948 109.877 15.236C109.429 15.508 109.077 15.932 108.821 16.508C108.581 17.068 108.461 17.772 108.461 18.62C108.461 19.884 108.733 20.844 109.277 21.5C109.821 22.14 110.541 22.46 111.437 22.46ZM124.508 24.74C123.484 24.74 122.58 24.492 121.796 23.996C121.028 23.5 120.428 22.796 119.996 21.884C119.564 20.956 119.348 19.868 119.348 18.62C119.348 17.356 119.564 16.276 119.996 15.38C120.428 14.468 121.028 13.764 121.796 13.268C122.58 12.772 123.484 12.524 124.508 12.524C125.484 12.524 126.332 12.764 127.052 13.244C127.788 13.724 128.284 14.356 128.54 15.14H128.276V8.9C128.276 8.404 128.404 8.028 128.66 7.772C128.916 7.516 129.284 7.388 129.764 7.388C130.244 7.388 130.612 7.516 130.868 7.772C131.14 8.028 131.276 8.404 131.276 8.9V23.156C131.276 23.652 131.148 24.036 130.892 24.308C130.636 24.564 130.268 24.692 129.788 24.692C129.308 24.692 128.94 24.564 128.684 24.308C128.428 24.036 128.3 23.652 128.3 23.156V21.284L128.564 22.004C128.324 22.836 127.836 23.5 127.1 23.996C126.364 24.492 125.5 24.74 124.508 24.74ZM125.348 22.46C125.94 22.46 126.46 22.316 126.908 22.028C127.356 21.74 127.7 21.316 127.94 20.756C128.196 20.18 128.324 19.468 128.324 18.62C128.324 17.34 128.052 16.388 127.508 15.764C126.964 15.124 126.244 14.804 125.348 14.804C124.756 14.804 124.236 14.948 123.788 15.236C123.34 15.508 122.988 15.932 122.732 16.508C122.492 17.068 122.372 17.772 122.372 18.62C122.372 19.884 122.644 20.844 123.188 21.5C123.732 22.14 124.452 22.46 125.348 22.46ZM136.883 29.012C136.531 29.012 136.243 28.916 136.019 28.724C135.795 28.548 135.659 28.308 135.611 28.004C135.579 27.7 135.635 27.38 135.779 27.044L137.411 23.42V24.668L133.043 14.564C132.899 14.212 132.851 13.884 132.899 13.58C132.947 13.276 133.091 13.036 133.331 12.86C133.587 12.668 133.931 12.572 134.363 12.572C134.731 12.572 135.027 12.66 135.251 12.836C135.475 12.996 135.675 13.308 135.851 13.772L139.091 21.86H138.371L141.683 13.748C141.859 13.3 142.067 12.996 142.307 12.836C142.547 12.66 142.867 12.572 143.267 12.572C143.619 12.572 143.899 12.668 144.107 12.86C144.315 13.036 144.443 13.276 144.491 13.58C144.539 13.868 144.483 14.188 144.323 14.54L138.491 27.86C138.283 28.308 138.059 28.612 137.819 28.772C137.579 28.932 137.267 29.012 136.883 29.012Z" fill="#555555"/>
</svg>
